<?xml version="1.0" standalone="no"?>
<!DOCTYPE svg PUBLIC "-//W3C//DTD SVG 20010904//EN"
 "http://www.w3.org/TR/2001/REC-SVG-20010904/DTD/svg10.dtd">
<svg version="1.0" xmlns="http://www.w3.org/2000/svg"
 width="200.000000pt" height="200.000000pt" viewBox="0 0 200.000000 200.000000"
 preserveAspectRatio="xMidYMid meet">
<metadata>
Created by potrace 1.10, written by Peter Selinger 2001-2011
</metadata>
<g transform="translate(0.000000,200.000000) scale(0.100000,-0.100000)"
fill="#000000" stroke="none">
<path d="M619 1780 c-93 -50 -145 -154 -137 -274 15 -227 231 -334 375 -186
121 124 101 355 -38 447 -55 36 -147 43 -200 13z m154 -34 c76 -32 121 -114
120 -222 0 -232 -244 -317 -345 -119 -11 22 -23 67 -26 101 -13 170 119 297
251 240z"/>
<path d="M1203 1779 c-88 -43 -137 -133 -137 -249 0 -94 28 -163 89 -219 113
-104 258 -70 333 78 40 79 44 168 12 255 -22 57 -87 128 -136 146 -43 17 -116
11 -161 -11z m163 -39 c102 -50 146 -207 90 -325 -73 -155 -239 -163 -320 -15
-52 96 -35 242 35 307 61 56 125 67 195 33z"/>
<path d="M240 1304 c-48 -21 -77 -50 -108 -109 -23 -43 -27 -62 -26 -135 0
-68 5 -95 24 -134 42 -88 110 -141 195 -152 88 -13 188 61 223 165 16 47 15
138 -3 198 -18 62 -84 139 -140 164 -48 22 -118 24 -165 3z m157 -45 c107 -52
155 -215 99 -335 -56 -120 -187 -143 -281 -50 -89 89 -99 248 -22 341 54 66
126 82 204 44z"/>
<path d="M1582 1299 c-114 -57 -173 -226 -126 -364 23 -66 95 -139 153 -155
121 -32 236 47 277 189 39 134 -23 291 -133 337 -48 21 -121 17 -171 -7z m168
-39 c146 -74 141 -349 -8 -423 -78 -40 -140 -28 -200 37 -49 53 -66 109 -59
191 12 161 145 257 267 195z"/>
<path d="M892 1184 c-67 -33 -102 -76 -158 -193 -59 -124 -77 -147 -132 -175
-64 -33 -126 -99 -159 -171 -23 -50 -27 -73 -27 -140 1 -97 23 -154 84 -215
66 -66 118 -85 230 -85 89 0 100 2 174 38 43 20 88 37 101 37 13 0 58 -17 101
-38 74 -35 85 -37 174 -37 79 0 103 4 142 23 235 116 230 449 -10 584 -58 33
-96 82 -132 168 -49 117 -113 190 -193 219 -52 20 -138 13 -195 -15z m182 -26
c60 -18 114 -79 167 -189 53 -108 91 -156 152 -192 104 -62 158 -153 158 -269
0 -96 -35 -169 -105 -215 -99 -67 -201 -70 -332 -10 -45 20 -94 37 -109 37
-15 0 -63 -16 -107 -36 -50 -22 -102 -38 -138 -41 -203 -19 -344 140 -297 332
22 88 63 144 145 198 82 54 107 85 166 209 77 161 168 215 300 176z"/>
</g>
</svg>
